<svg width="3360" height="1823" viewBox="0 0 3360 1823" fill="none" xmlns="http://www.w3.org/2000/svg">
<g clip-path="url(#clip0_44_48)">
<path d="M3360 0H0V1823H3360V0Z" fill="white"/>
<path d="M348.991 1433.15H1411.72V370.03H348.991V1433.15ZM482.906 580.376C536.688 517.101 605.496 468.35 683.015 438.599C760.534 408.847 844.281 399.047 926.571 410.099C1008.86 421.15 1087.06 452.698 1153.99 501.848C1220.92 550.998 1274.44 616.176 1309.63 691.401C1344.82 766.625 1360.57 849.487 1355.42 932.382C1350.26 1015.28 1324.38 1095.55 1280.14 1165.83C1235.91 1236.12 1174.73 1294.16 1102.23 1334.64C1029.73 1375.12 948.23 1396.74 865.205 1397.51C750.286 1399.37 638.425 1360.44 549.468 1287.65C497.03 1245.55 453.784 1193.14 422.405 1133.66H637.691C638.729 1133.61 639.766 1133.77 640.737 1134.15C641.707 1134.52 642.59 1135.09 643.33 1135.82C675.322 1165.77 713.166 1188.77 754.48 1203.38C795.794 1217.99 839.684 1223.88 883.387 1220.69C910.095 1218.79 936.449 1213.48 961.807 1204.88C1009.68 1188.64 1053.02 1161.28 1088.29 1125.06C1091.3 1122.06 1094.19 1118.84 1097.09 1115.73L1096.83 1114.99H1013.14C1015.35 1108.82 1017.25 1103.13 1019.3 1097.54C1025.77 1081.2 1028.87 1063.72 1028.42 1046.14C1028.04 1029.1 1024.16 1012.32 1017.04 996.83C1009.91 981.344 999.686 967.485 986.991 956.111C974.297 944.737 959.405 936.088 943.235 930.701C927.066 925.314 909.964 923.303 892.987 924.792C876.01 926.28 859.518 931.237 844.533 939.356C829.547 947.475 816.386 958.583 805.863 971.993C795.341 985.404 787.681 1000.83 783.356 1017.32C779.032 1033.81 778.136 1051.01 780.724 1067.86C783.212 1081.37 787.043 1094.6 792.16 1107.35C793.003 1109.67 793.794 1111.99 794.742 1114.62H421.614C418.663 1114.62 415.026 1115.57 412.971 1114.2C410.916 1112.83 409.967 1108.93 408.649 1106.4C407.332 1103.87 406.383 1101.55 405.276 1099.12C405.013 1098.49 404.855 1097.81 404.539 1096.81H769.446C759.026 1067.03 758.825 1034.63 768.875 1004.72C778.926 974.822 798.654 949.123 824.94 931.691C847.48 916.68 873.833 908.414 900.905 907.863C927.977 907.312 954.645 914.499 977.776 928.581C1001.33 942.808 1020.17 963.655 1031.95 988.522C1040.13 1005.36 1044.9 1023.66 1045.98 1042.35C1047.05 1061.05 1044.42 1079.77 1038.22 1097.44H1040.7C1085.71 1097.44 1130.72 1097.44 1175.72 1097.44C1176.5 1097.52 1177.29 1097.36 1177.98 1096.99C1178.66 1096.61 1179.22 1096.03 1179.57 1095.33C1182.57 1089.64 1186.16 1084.21 1188.64 1078.25C1195.44 1060.55 1198.75 1041.7 1198.39 1022.74C1198.2 983.404 1192.18 944.318 1180.52 906.755C1180.2 905.603 1179.63 904.539 1178.83 903.645C1174.67 898.848 1170.61 893.892 1166.08 889.411C1148.01 872.093 1127.24 857.847 1104.58 847.236C1078.97 834.919 1052.21 825.171 1024.68 818.136C993.086 809.869 960.97 803.739 928.552 799.79C896.343 795.695 863.938 793.337 831.476 792.726C830.138 792.565 828.866 792.056 827.786 791.25C811.449 779.704 795.375 767.737 778.721 756.666C724.559 721.064 667.938 689.353 609.285 661.773C591.841 653.444 574.186 645.378 556.109 638.472C527.308 628.283 497.447 621.386 467.096 617.912L454.816 616.225C458.769 610.953 462.405 605.997 465.883 601.042C466.421 600.156 467.208 599.449 468.145 599.009C469.083 598.568 470.129 598.413 471.154 598.564C484.533 599.103 497.834 600.868 510.891 603.836C548.989 613.149 585.791 627.138 620.458 645.483C635.583 653.18 650.234 661.773 665.254 669.681C724.274 699.989 780.822 734.891 834.374 774.063C835.467 774.865 836.764 775.34 838.116 775.434C860.461 776.805 882.86 777.701 905.205 779.493C939.037 782.389 972.621 787.674 1005.71 795.309C1042.44 803.216 1078.12 815.407 1112.01 831.632C1135.71 842.916 1157.5 857.82 1176.62 875.81C1177.15 876.337 1177.83 876.759 1178.46 877.286C1178.46 876.917 1178.78 876.759 1178.78 876.601C1178.83 875.863 1178.83 875.124 1178.78 874.386C1174.9 828.006 1160.93 783.035 1137.85 742.622C1114.77 702.208 1083.13 667.33 1045.17 640.428C1007.2 613.526 963.81 595.25 918.04 586.88C872.27 578.51 825.224 580.249 780.197 591.974C739.408 602.784 701.153 621.541 667.626 647.17C667.005 647.733 666.197 648.045 665.36 648.045C664.522 648.045 663.714 647.733 663.093 647.17C633.676 629.837 602.882 614.956 571.023 602.676C548.291 593.739 524.721 587.098 500.667 582.854C494.711 581.905 488.914 581.22 482.906 580.376ZM903.888 1146.57C884.806 1146.61 866.141 1140.99 850.254 1130.42C834.368 1119.85 821.973 1104.8 814.64 1087.17C807.306 1069.55 805.363 1050.15 809.056 1031.42C812.75 1012.7 821.913 995.488 835.387 981.972C848.862 968.457 866.041 959.243 884.752 955.498C903.462 951.752 922.863 953.643 940.499 960.931C958.135 968.218 973.214 980.575 983.827 996.438C994.44 1012.3 1000.11 1030.96 1000.12 1050.04C1000.11 1075.59 989.972 1100.1 971.936 1118.19C953.899 1136.28 929.43 1146.49 903.888 1146.57Z" fill="white"/>
<path d="M482.906 580.376C488.914 581.22 494.711 581.905 500.403 582.854C524.572 587.146 548.249 593.857 571.076 602.887C602.934 615.167 633.728 630.048 663.146 647.381C663.767 647.944 664.574 648.256 665.412 648.256C666.25 648.256 667.058 647.944 667.678 647.381C701.206 621.752 739.461 602.995 780.249 592.185C855.827 572.489 936.005 581.251 1005.55 616.805C1053.9 641.573 1095.16 678.223 1125.47 723.315C1155.78 768.407 1174.14 820.463 1178.83 874.597C1178.88 875.334 1178.88 876.074 1178.83 876.811C1178.83 876.811 1178.83 877.128 1178.52 877.497C1177.88 876.97 1177.2 876.548 1176.67 876.021C1157.55 857.952 1135.74 842.975 1112.01 831.632C1077.95 815.368 1042.09 803.176 1005.18 795.309C972.094 787.674 938.51 782.389 904.678 779.493C882.333 777.701 859.934 776.805 837.589 775.434C836.237 775.34 834.94 774.865 833.847 774.063C780.295 734.891 723.747 699.989 664.727 669.681C649.707 661.773 635.056 653.18 619.931 645.483C585.263 627.138 548.462 613.149 510.364 603.836C497.307 600.868 484.006 599.103 470.627 598.564C469.602 598.413 468.556 598.568 467.618 599.009C466.681 599.449 465.894 600.156 465.356 601.042C461.878 605.997 458.242 610.847 454.289 616.225L466.569 617.912C496.92 621.386 526.781 628.283 555.582 638.472C573.659 645.378 591.314 653.444 608.758 661.773C667.411 689.353 724.032 721.064 778.194 756.666C794.848 767.737 810.922 779.704 827.259 791.249C828.339 792.056 829.611 792.565 830.948 792.726C863.411 793.337 895.816 795.695 928.025 799.79C960.443 803.739 992.559 809.869 1024.15 818.136C1051.68 825.171 1078.44 834.919 1104.05 847.236C1126.71 857.847 1147.49 872.093 1165.55 889.411C1170.08 893.892 1174.14 898.848 1178.31 903.645C1179.1 904.539 1179.68 905.603 1179.99 906.755C1191.65 944.318 1197.67 983.404 1197.86 1022.74C1198.23 1041.7 1194.92 1060.55 1188.11 1078.25C1185.63 1084.21 1182.05 1089.64 1179.04 1095.33C1178.69 1096.03 1178.14 1096.61 1177.45 1096.99C1176.76 1097.36 1175.98 1097.52 1175.2 1097.44C1130.19 1097.44 1085.18 1097.44 1040.17 1097.44H1037.7C1043.92 1079.79 1046.58 1061.08 1045.54 1042.4C1044.5 1023.72 1039.78 1005.42 1031.64 988.574C1019.85 963.707 1001.01 942.861 977.459 928.633C954.328 914.552 927.661 907.364 900.589 907.915C873.517 908.466 847.164 916.733 824.624 931.744C798.394 949.22 778.73 974.939 768.738 1004.84C758.746 1034.74 758.995 1067.12 769.446 1096.86H404.539C404.855 1097.86 405.013 1098.54 405.276 1099.18C406.383 1101.6 407.49 1104.03 408.649 1106.45C409.809 1108.88 410.757 1112.83 412.971 1114.25C415.184 1115.68 418.663 1114.68 421.614 1114.68H794.532C793.583 1112.04 792.792 1109.72 791.949 1107.4C786.833 1094.65 783.002 1081.43 780.513 1067.92C777.926 1051.07 778.822 1033.86 783.146 1017.37C787.47 1000.88 795.13 985.456 805.653 972.046C816.175 958.636 829.336 947.528 844.322 939.409C859.307 931.29 875.799 926.333 892.776 924.844C909.753 923.356 926.856 925.367 943.025 930.754C959.194 936.141 974.086 944.789 986.781 956.164C999.475 967.538 1009.7 981.397 1016.83 996.882C1023.95 1012.37 1027.83 1029.15 1028.21 1046.2C1028.66 1063.77 1025.56 1081.25 1019.09 1097.6C1017.04 1103.18 1015.14 1108.88 1012.93 1115.05H1096.88L1097.14 1115.78C1094.25 1118.89 1091.35 1122.11 1088.34 1125.11C1053.07 1161.34 1009.73 1188.69 961.86 1204.93C895.366 1227.29 823.351 1227.05 757.008 1204.24C714.731 1189.66 676.011 1166.3 643.383 1135.71C642.646 1134.96 641.758 1134.36 640.778 1133.97C639.797 1133.58 638.746 1133.4 637.691 1133.44H422.405C453.784 1192.93 497.03 1245.34 549.468 1287.43C638.425 1360.23 750.286 1399.16 865.205 1397.3C948.249 1396.55 1029.77 1374.94 1102.3 1334.47C1174.82 1293.99 1236.02 1235.94 1280.27 1165.65C1324.53 1095.35 1350.42 1015.06 1355.58 932.149C1360.74 849.236 1344.99 766.355 1309.79 691.114C1274.59 615.872 1221.06 550.681 1154.11 501.524C1087.16 452.367 1008.95 420.818 926.636 409.774C844.326 398.73 760.561 408.544 683.03 438.316C605.499 468.088 536.686 516.863 482.906 580.165V580.376Z" fill="black"/>
<path d="M903.888 1146.57C923.005 1146.56 941.688 1140.86 957.563 1130.21C973.438 1119.56 985.79 1104.42 993.049 1086.73C1000.31 1069.04 1002.15 1049.59 998.335 1030.85C994.522 1012.11 985.227 994.93 971.631 981.486C958.035 968.042 940.752 958.944 921.976 955.345C903.201 951.747 883.779 953.812 866.179 961.277C848.579 968.742 833.593 981.272 823.126 997.274C812.659 1013.28 807.182 1032.03 807.391 1051.15C807.696 1076.55 817.995 1100.82 836.057 1118.68C854.12 1136.54 878.49 1146.56 903.888 1146.57Z" fill="black"/>
<path d="M2025.22 548.587C2025.24 552.276 2024.52 555.932 2023.12 559.344C2021.71 562.756 2019.65 565.857 2017.05 568.468C2014.44 571.08 2011.34 573.15 2007.94 574.56C2004.53 575.97 2000.87 576.693 1997.19 576.686H1855.1V1011.72C1855.17 1015.94 1854.36 1020.13 1852.73 1024.02C1851.1 1027.91 1848.67 1031.43 1845.62 1034.33C1842.52 1037.42 1838.82 1039.85 1834.75 1041.46C1830.68 1043.08 1826.33 1043.84 1821.95 1043.72C1817.7 1043.79 1813.48 1042.99 1809.55 1041.38C1805.62 1039.77 1802.06 1037.37 1799.08 1034.33C1796.02 1031.43 1793.6 1027.91 1791.97 1024.02C1790.33 1020.13 1789.53 1015.94 1789.59 1011.72V576.686H1648.72C1645.02 576.744 1641.35 576.045 1637.94 574.63C1634.52 573.216 1631.43 571.117 1628.85 568.462C1626.11 565.636 1623.97 562.281 1622.57 558.601C1621.16 554.921 1620.52 550.994 1620.68 547.058C1620.66 543.365 1621.36 539.703 1622.76 536.284C1624.16 532.866 1626.22 529.76 1628.83 527.146C1631.44 524.531 1634.54 522.462 1637.95 521.056C1641.37 519.651 1645.03 518.938 1648.72 518.959H1997.4C2001.09 518.9 2004.76 519.594 2008.17 520.999C2011.59 522.404 2014.68 524.49 2017.26 527.131C2019.97 529.987 2022.06 533.36 2023.43 537.047C2024.8 540.734 2025.41 544.659 2025.22 548.587Z" fill="#394168"/>
<path d="M2226.33 683.493C2226.45 687.579 2225.75 691.646 2224.28 695.458C2222.8 699.269 2220.58 702.747 2217.74 705.688C2214.92 708.668 2211.55 711.063 2207.8 712.737C2204.06 714.41 2200.02 715.329 2195.92 715.441C2176.72 716.484 2157.96 721.682 2140.96 730.676C2122.72 740.538 2107.3 754.891 2096.16 772.376V1014.88C2096.19 1018.67 2095.43 1022.43 2093.93 1025.92C2092.44 1029.4 2090.23 1032.54 2087.46 1035.12C2084.71 1037.9 2081.42 1040.09 2077.8 1041.57C2074.18 1043.05 2070.29 1043.78 2066.38 1043.72H2065.59C2057.99 1043.32 2050.8 1040.13 2045.41 1034.76C2042.73 1032.19 2040.62 1029.1 2039.19 1025.68C2037.77 1022.26 2037.07 1018.59 2037.13 1014.88V685.813C2037.17 682.139 2037.96 678.511 2039.45 675.155C2040.95 671.8 2043.12 668.788 2045.83 666.307C2048.75 663.472 2052.21 661.254 2056 659.786C2059.79 658.319 2063.85 657.632 2067.91 657.767C2071.61 657.785 2075.27 658.551 2078.66 660.019C2082.06 661.486 2085.13 663.625 2087.67 666.307C2090.38 668.788 2092.55 671.8 2094.05 675.155C2095.55 678.511 2096.34 682.139 2096.37 685.813V723.243C2102.06 715.968 2108.6 708.324 2115.87 700.258C2123.16 692.186 2131.25 684.873 2140.01 678.432C2148.82 672.031 2158.38 666.72 2168.47 662.617C2178.49 658.46 2189.24 656.328 2200.09 656.343C2203.57 656.326 2207.02 657.018 2210.23 658.378C2213.44 659.737 2216.33 661.736 2218.74 664.251C2221.24 666.781 2223.2 669.79 2224.5 673.096C2225.81 676.403 2226.43 679.94 2226.33 683.493Z" fill="#394168"/>
<path d="M2323.36 529.872C2333.9 529.9 2344 534.104 2351.44 541.564C2358.89 549.024 2363.08 559.131 2363.09 569.674C2363.2 574.847 2362.22 579.983 2360.21 584.752C2358.21 589.52 2355.22 593.813 2351.45 597.351C2347.75 601.01 2343.36 603.892 2338.54 605.83C2333.72 607.767 2328.55 608.72 2323.36 608.633C2318.28 608.668 2313.26 607.688 2308.57 605.75C2303.88 603.813 2299.63 600.957 2296.06 597.351C2292.28 593.813 2289.3 589.52 2287.29 584.752C2285.29 579.983 2284.3 574.847 2284.41 569.674C2284.34 564.444 2285.33 559.255 2287.34 554.423C2289.34 549.592 2292.31 545.22 2296.06 541.575C2299.57 537.864 2303.8 534.911 2308.5 532.898C2313.19 530.885 2318.25 529.856 2323.36 529.872ZM2353.4 1014.88C2353.43 1018.67 2352.67 1022.43 2351.17 1025.92C2349.67 1029.4 2347.47 1032.54 2344.7 1035.12C2341.94 1037.9 2338.66 1040.09 2335.03 1041.57C2331.41 1043.04 2327.53 1043.77 2323.62 1043.72C2319.79 1043.76 2315.99 1043.02 2312.46 1041.54C2308.93 1040.06 2305.73 1037.88 2303.07 1035.12C2300.3 1032.53 2298.11 1029.4 2296.62 1025.91C2295.13 1022.43 2294.38 1018.67 2294.42 1014.88V685.813C2294.45 682.142 2295.23 678.516 2296.71 675.16C2298.2 671.804 2300.36 668.79 2303.07 666.307C2305.99 663.467 2309.46 661.247 2313.26 659.78C2317.07 658.313 2321.13 657.628 2325.2 657.767C2328.9 657.785 2332.56 658.551 2335.95 660.019C2339.35 661.486 2342.42 663.625 2344.96 666.307C2347.67 668.788 2349.84 671.8 2351.34 675.155C2352.84 678.511 2353.63 682.139 2353.66 685.813L2353.4 1014.88Z" fill="#394168"/>
<path d="M2822.6 850.347C2823.02 878.403 2818.94 906.345 2810.53 933.115C2803.37 955.965 2791.75 977.164 2776.33 995.48C2761.92 1012.38 2743.91 1025.83 2723.63 1034.86C2702.18 1044.15 2679.01 1048.8 2655.64 1048.51C2630.74 1048.76 2606.15 1042.85 2584.07 1031.33C2561.98 1019.65 2543.05 1002.79 2528.89 982.195V1390.34C2528.86 1394.01 2528.07 1397.64 2526.57 1401C2525.08 1404.35 2522.91 1407.37 2520.2 1409.85C2517.43 1412.61 2514.15 1414.8 2510.53 1416.27C2506.91 1417.75 2503.03 1418.49 2499.12 1418.44C2495.29 1418.47 2491.49 1417.72 2487.96 1416.24C2484.43 1414.77 2481.23 1412.59 2478.56 1409.85C2475.85 1407.37 2473.68 1404.35 2472.19 1401C2470.69 1397.64 2469.9 1394.01 2469.87 1390.34V685.813C2469.9 682.139 2470.69 678.511 2472.19 675.155C2473.68 671.8 2475.85 668.788 2478.56 666.307C2481.49 663.467 2484.96 661.247 2488.76 659.78C2492.56 658.313 2496.62 657.628 2500.7 657.767C2504.39 657.792 2508.04 658.561 2511.42 660.029C2514.81 661.496 2517.87 663.631 2520.41 666.307C2523.12 668.788 2525.29 671.8 2526.78 675.155C2528.28 678.511 2529.07 682.139 2529.1 685.813V718.551C2542.99 698.933 2561.22 682.801 2582.39 671.421C2604.78 659.16 2629.95 652.844 2655.48 653.075C2678.85 652.791 2702.02 657.444 2723.47 666.729C2743.68 675.693 2761.67 688.994 2776.17 705.688C2791.63 723.838 2803.26 744.925 2810.37 767.684C2818.83 794.411 2822.95 822.317 2822.6 850.347ZM2761.04 850.347C2761.24 830.717 2758.48 811.169 2752.88 792.357C2747.93 775.676 2739.89 760.08 2729.16 746.386C2718.94 733.496 2705.93 723.095 2691.11 715.968C2675.33 708.53 2658.06 704.797 2640.62 705.055C2617.56 704.981 2594.9 711.04 2574.95 722.61C2556.24 732.692 2540.35 747.3 2528.74 765.101V935.065C2540.4 952.934 2556.27 967.668 2574.95 977.978C2594.83 989.756 2617.52 995.949 2640.62 995.902C2658.06 996.16 2675.33 992.427 2691.11 984.989C2705.93 977.862 2718.94 967.461 2729.16 954.571C2739.93 940.75 2747.98 925.006 2752.88 908.179C2758.42 889.406 2761.17 869.92 2761.04 850.347Z" fill="#394168"/>
<path d="M2667.39 1081.57C2674.01 1081.6 2680.35 1084.24 2685.03 1088.92C2689.71 1093.6 2692.35 1099.94 2692.37 1106.56C2692.43 1109.81 2691.8 1113.04 2690.53 1116.04C2689.26 1119.03 2687.37 1121.73 2685 1123.95C2682.68 1126.24 2679.93 1128.04 2676.9 1129.26C2673.88 1130.47 2670.65 1131.07 2667.39 1131.02C2664.21 1131.04 2661.06 1130.42 2658.12 1129.21C2655.18 1128 2652.51 1126.21 2650.27 1123.95C2647.89 1121.73 2646.01 1119.03 2644.73 1116.04C2643.46 1113.04 2642.83 1109.81 2642.89 1106.56C2642.85 1103.27 2643.48 1100 2644.75 1096.96C2646.02 1093.93 2647.9 1091.18 2650.27 1088.9C2652.47 1086.58 2655.13 1084.73 2658.08 1083.47C2661.02 1082.21 2664.19 1081.56 2667.39 1081.57ZM2686.26 1386.18C2686.3 1388.54 2685.85 1390.89 2684.95 1393.08C2684.04 1395.26 2682.69 1397.24 2680.99 1398.88C2679.23 1400.62 2677.14 1401.98 2674.84 1402.88C2672.54 1403.79 2670.08 1404.22 2667.6 1404.15C2665.21 1404.19 2662.83 1403.74 2660.61 1402.83C2658.39 1401.93 2656.38 1400.58 2654.69 1398.88C2652.99 1397.24 2651.64 1395.27 2650.73 1393.08C2649.82 1390.89 2649.38 1388.54 2649.42 1386.18V1179.52C2649.41 1177.23 2649.88 1174.96 2650.78 1172.85C2651.69 1170.75 2653.02 1168.86 2654.69 1167.29C2656.54 1165.52 2658.72 1164.14 2661.11 1163.24C2663.5 1162.33 2666.05 1161.92 2668.61 1162.02C2670.92 1162.02 2673.2 1162.49 2675.33 1163.4C2677.46 1164.3 2679.38 1165.63 2680.99 1167.29C2682.66 1168.86 2683.99 1170.76 2684.89 1172.86C2685.8 1174.96 2686.26 1177.23 2686.26 1179.52V1386.18Z" fill="#020202"/>
<path d="M2950.03 1398.88C2948.27 1400.62 2946.18 1401.98 2943.88 1402.88C2941.58 1403.79 2939.12 1404.22 2936.65 1404.15C2934.25 1404.19 2931.87 1403.74 2929.65 1402.83C2927.44 1401.93 2925.42 1400.58 2923.74 1398.88C2922.03 1397.24 2920.68 1395.26 2919.78 1393.08C2918.87 1390.89 2918.42 1388.54 2918.46 1386.18V1246.58C2918.46 1225.7 2913.7 1211.34 2904.18 1203.51C2893.24 1195.22 2879.73 1191.06 2866.03 1191.75C2858.9 1191.73 2851.8 1192.73 2844.95 1194.7C2838.18 1196.64 2831.65 1199.35 2825.5 1202.77C2819.52 1206.09 2813.9 1210.03 2808.74 1214.53C2804.03 1218.58 2799.87 1223.22 2796.35 1228.34V1386.02C2796.4 1388.38 2795.95 1390.73 2795.05 1392.92C2794.14 1395.11 2792.79 1397.08 2791.08 1398.72C2789.32 1400.46 2787.23 1401.82 2784.93 1402.73C2782.63 1403.63 2780.17 1404.06 2777.7 1403.99C2775.3 1404.03 2772.92 1403.58 2770.71 1402.68C2768.49 1401.77 2766.47 1400.43 2764.79 1398.72C2763.08 1397.08 2761.74 1395.1 2760.83 1392.92C2759.92 1390.73 2759.48 1388.38 2759.52 1386.02V1179.36C2759.51 1177.07 2759.98 1174.8 2760.89 1172.7C2761.79 1170.6 2763.12 1168.7 2764.79 1167.13C2766.63 1165.36 2768.82 1163.98 2771.21 1163.08C2773.6 1162.17 2776.15 1161.76 2778.7 1161.86C2781.01 1161.87 2783.3 1162.33 2785.43 1163.24C2787.55 1164.15 2789.48 1165.47 2791.08 1167.13C2792.76 1168.7 2794.09 1170.59 2794.99 1172.7C2795.9 1174.8 2796.36 1177.07 2796.35 1179.36V1198.92C2800.98 1193.69 2806.04 1188.86 2811.48 1184.48C2817.69 1179.58 2824.32 1175.24 2831.3 1171.51C2838.72 1167.55 2846.57 1164.43 2854.7 1162.23C2863.04 1159.95 2871.66 1158.79 2880.31 1158.8C2904.9 1158.8 2923.61 1165.08 2936.44 1177.62C2949.26 1190.17 2955.6 1209.36 2955.46 1235.19V1386.02C2955.51 1388.42 2955.05 1390.81 2954.11 1393.03C2953.18 1395.24 2951.79 1397.24 2950.03 1398.88Z" fill="#020202"/>
</g>
<defs>
<clipPath id="clip0_44_48">
<rect width="3360" height="1823" fill="white"/>
</clipPath>
</defs>
</svg>
